<svg width="112" height="115" viewBox="0 0 112 115" fill="none" xmlns="http://www.w3.org/2000/svg">
<path d="M111.333 69.7946C111.38 70.2859 111.38 70.7809 111.333 71.2723C110.849 74.2138 110.136 77.1131 109.201 79.9439C106.553 87.3098 102.3 93.9949 96.7509 99.516C85.6739 108.782 71.7555 113.972 57.3161 114.219H55.8143C41.9289 113.874 28.6428 108.491 18.4327 99.0737C8.22256 89.6568 1.78518 76.8487 0.319984 63.0364C0.0799627 60.7434 -0.0251957 58.4383 0.00507544 56.133C0.00507544 55.3821 0.00507544 54.6312 0.00507544 53.856V53.3473C0.00507544 52.6448 0.126059 51.9182 0.174505 51.2157C0.187659 51.0626 0.187659 50.9086 0.174505 50.7555C0.174505 50.053 0.344029 49.3506 0.440921 48.6723V48.2606C0.440921 47.5339 0.658985 46.8314 0.804322 46.1047C0.804322 46.1047 0.804322 46.1047 0.804322 45.9109L1.24046 43.9003C1.24046 43.9003 1.24046 43.6582 1.24046 43.5613C1.3858 42.8831 1.57949 42.2048 1.74905 41.5508L1.89423 41.0906C2.06379 40.4366 2.28207 39.7826 2.47585 39.1528L2.62103 38.7168L3.32359 36.7547V36.4641C3.5416 35.8585 3.78365 35.2528 4.0501 34.6715C4.0501 34.5503 4.0501 34.4534 4.0501 34.3565C4.31655 33.7268 4.60746 33.1213 4.89813 32.4915L5.09181 32.0796C5.38248 31.474 5.69737 30.8927 5.98804 30.3114L6.23021 29.8754C6.54511 29.2698 6.88429 28.6885 7.19918 28.1314L7.41711 27.768C7.732 27.2351 8.07121 26.7023 8.41033 26.1694L8.55551 25.9028L9.69421 24.2314L9.96062 23.8439L11.1233 22.2694L11.4382 21.8576L12.6736 20.3316L12.9642 19.9924L14.2239 18.5391V18.418C14.6599 17.9578 15.0957 17.4733 15.5559 17.0131C15.6547 16.9021 15.7599 16.797 15.8708 16.6982C16.3311 16.2379 16.7915 15.7777 17.276 15.3417L17.6391 14.9783L19.0927 13.6946L19.4558 13.3797L21.0303 12.0958L21.2485 11.9021L22.7503 10.7635L23.0892 10.5214L24.7122 9.40707L25.1241 9.11641L26.7954 8.07485L27.2073 7.80843L28.9512 6.81521L29.2661 6.64563C29.799 6.33074 30.3805 6.06432 30.9377 5.77365L31.2523 5.60407L33.0932 4.75633L33.5294 4.53826L35.3461 3.76326L35.8304 3.59368L37.7199 2.89113H38.1075L39.9485 2.28556H40.2149L42.2253 1.75272L42.6857 1.63164L44.6476 1.1714H44.914C52.4767 -0.384582 60.2764 -0.390542 67.8414 1.1541C75.4064 2.69875 82.5796 5.7618 88.927 10.158C90.0178 10.9076 90.9302 11.8882 91.5991 13.0303C92.2681 14.1724 92.677 15.4478 92.7972 16.7659C92.9175 18.084 92.7461 19.4123 92.2949 20.6565C91.8436 21.9008 91.1238 23.0304 90.1866 23.965H90.0411L89.799 24.2072C88.2917 25.6879 86.3142 26.5953 84.2087 26.7723C82.1032 26.9492 80.0021 26.3846 78.2689 25.1762C71.8552 20.7625 64.2539 18.3977 56.4683 18.3938C53.7907 18.3952 51.1205 18.6711 48.4992 19.2173H48.0631L46.6825 19.5564L46.0285 19.726L44.8898 20.0652L44.1875 20.3073C43.8241 20.4285 43.4849 20.5254 43.1458 20.6707L42.4193 20.9372L41.4018 21.3489L40.7235 21.6396L39.7063 22.1241L39.0523 22.439C38.6889 22.6085 38.3254 22.8265 37.9621 23.0203L37.4535 23.2868C36.9448 23.5775 36.4119 23.8681 35.9032 24.2072L35.5398 24.4495L34.4014 25.2004L33.8443 25.6121C33.5294 25.8059 33.2387 26.0482 32.9481 26.2662L32.3425 26.7264L31.5432 27.4046L30.9377 27.9133L30.1624 28.6158L29.6053 29.1245L28.8542 29.8996L28.6121 30.1418L28.3214 30.4084L27.5464 31.2804L27.1103 31.7648C26.7227 32.2008 26.3595 32.6611 25.9961 33.1213C25.9019 33.2241 25.8207 33.3379 25.754 33.4603C25.4633 33.8237 25.1724 34.1871 24.9059 34.5746L24.5186 35.1317C24.3006 35.4466 24.0825 35.7615 23.8887 36.0764L23.5011 36.7062C23.3073 37.0211 23.1136 37.3118 22.944 37.6267C22.8006 37.8444 22.6711 38.0708 22.5564 38.3049C22.3868 38.6198 22.2173 38.9105 22.0478 39.2496C21.8782 39.5887 21.8297 39.6857 21.7086 39.9279C21.5875 40.1701 21.3939 40.5819 21.2243 40.921L20.9336 41.5751C20.7641 41.9626 20.6186 42.3259 20.4732 42.7135C20.3279 43.101 20.3037 43.0769 20.2311 43.2707C20.0131 43.852 19.8193 44.4091 19.6255 44.9904C19.6286 45.0469 19.6286 45.1035 19.6255 45.16C19.4559 45.6929 19.2862 46.2257 19.1409 46.7829L18.9957 47.3643C18.9957 47.7761 18.7777 48.1878 18.6808 48.5996C18.5839 49.0114 18.6808 49.0357 18.6808 49.2779C18.6808 49.5201 18.5113 50.053 18.4386 50.4648C18.3659 50.8766 18.4386 50.925 18.4386 51.1672C18.4386 51.4094 18.4384 51.9667 18.2689 52.3542V53.0566C18.2689 53.4927 18.2689 53.9044 18.2689 54.3404C18.2809 54.5501 18.2809 54.7604 18.2689 54.9702C18.2689 55.4789 18.2689 55.9875 18.2689 56.472V56.908C18.2689 57.562 18.2689 58.2403 18.2689 58.8943C18.4309 62.5342 19.1164 66.132 20.3038 69.5766C22.4982 75.9345 26.2985 81.6172 31.3363 86.0736C36.374 90.5299 42.4782 93.6084 49.0563 95.0106C53.51 95.9473 58.0944 96.0867 62.5968 95.4223C69.6456 94.3808 77.954 93.2665 84.688 86.3388C85.6833 85.2214 86.5599 84.0037 87.3039 82.7054V82.4874C87.3667 82.3225 87.3886 82.1447 87.3675 81.9695C87.3464 81.7944 87.2831 81.627 87.183 81.4817C87.0829 81.3363 86.9491 81.2174 86.793 81.1353C86.6369 81.0531 86.4632 81.01 86.2868 81.0097H64.4862C62.7737 81.0043 61.0943 80.5382 59.6239 79.6602C58.1536 78.7823 56.9463 77.5248 56.1292 76.0198C56.1422 75.9559 56.1422 75.8901 56.1292 75.8262L55.8385 75.1963L55.6933 74.8087C55.6933 74.6634 55.6932 74.4938 55.5236 74.3242C55.354 74.1546 55.5236 74.0336 55.5236 73.8882C55.5236 73.7429 55.5236 73.5734 55.5236 73.4039C55.512 73.2588 55.512 73.1128 55.5236 72.9677C55.5001 72.799 55.5001 72.6279 55.5236 72.4592C55.5109 72.306 55.5109 72.1521 55.5236 71.9989C55.5115 71.8457 55.5115 71.6918 55.5236 71.5387C55.5116 71.4179 55.5116 71.2961 55.5236 71.1753C55.5115 70.9817 55.5115 70.7875 55.5236 70.5939C55.5236 70.5939 55.5236 70.5939 55.5236 70.4244C55.8181 68.1403 56.9348 66.0417 58.6647 64.5214C60.3946 63.0011 62.6191 62.1632 64.9221 62.1645H103.509C103.815 62.1397 104.123 62.1397 104.43 62.1645C106.293 62.4245 108.005 63.3312 109.267 64.726C110.529 66.1208 111.26 67.9149 111.333 69.7946Z" fill="#0095C0"/>
<path d="M108.97 50.2612C110.462 43.9676 106.57 37.6559 100.276 36.1636C93.9826 34.6713 87.6709 38.5635 86.1786 44.8571C84.6863 51.1507 88.5785 57.4624 94.8721 58.9547C101.166 60.447 107.478 56.5549 108.97 50.2612Z" fill="url(#paint0_radial_74_236)"/>
<defs>
<radialGradient id="paint0_radial_74_236" cx="0" cy="0" r="1" gradientTransform="matrix(30.4743 -0.00567468 0.00587641 31.0836 100.16 46.6481)" gradientUnits="userSpaceOnUse">
<stop stop-color="white"/>
<stop offset="0.26" stop-color="#FAFAFA"/>
<stop offset="0.55" stop-color="#ECECEC"/>
<stop offset="0.87" stop-color="#D5D5D5"/>
<stop offset="1" stop-color="#C9C9C9"/>
</radialGradient>
</defs>
</svg>
